<?xml version="1.0" standalone="no"?><!DOCTYPE svg PUBLIC "-//W3C//DTD SVG 1.1//EN" "http://www.w3.org/Graphics/SVG/1.1/DTD/svg11.dtd"><svg t="1530265968613" class="icon" style="" viewBox="0 0 1025 1024" version="1.1" xmlns="http://www.w3.org/2000/svg" p-id="1668" xmlns:xlink="http://www.w3.org/1999/xlink" width="200.1953125" height="200"><defs><style type="text/css"></style></defs><path d="M127.5904 229.888c82.176-82.176 191.488-127.488 307.712-127.488s225.536 45.2608 307.712 127.488 127.488 191.488 127.488 307.712l0 66.2016 109.8752-109.8752c9.984-9.984 26.2144-9.984 36.1984 0s9.984 26.2144 0 36.1984l-153.6 153.6c-5.0176 5.0176-11.5712 7.4752-18.1248 7.4752s-13.1072-2.5088-18.1248-7.4752l-153.6-153.6c-9.984-9.984-9.984-26.2144 0-36.1984s26.2144-9.984 36.1984 0l109.8752 109.8752 0-66.2016c0-211.7632-172.2368-384-384-384s-384 172.2368-384 384c0 211.7632 172.2368 384 384 384 14.1312 0 25.6 11.4688 25.6 25.6s-11.4688 25.6-25.6 25.6c-116.224 0-225.536-45.2608-307.712-127.488s-127.488-191.488-127.488-307.712c0-116.224 45.2608-225.536 127.488-307.712z" p-id="1669" fill="#333333"></path></svg>