<?xml version="1.0" standalone="no"?><!DOCTYPE svg PUBLIC "-//W3C//DTD SVG 1.1//EN" "http://www.w3.org/Graphics/SVG/1.1/DTD/svg11.dtd"><svg t="1530270477678" class="icon" style="" viewBox="0 0 1024 1024" version="1.1" xmlns="http://www.w3.org/2000/svg" p-id="6814" xmlns:xlink="http://www.w3.org/1999/xlink" width="200" height="200"><defs><style type="text/css"></style></defs><path d="M876.544 530.432h-272.384c-12.288 0-20.48-8.192-20.48-20.48s8.192-20.48 20.48-20.48h272.384l-112.64-112.64c-8.192-8.192-8.192-20.48 0-28.672 8.192-8.192 20.48-8.192 28.672 0l145.408 145.408c2.048 2.048 4.096 6.144 6.144 10.24 2.048 8.192 2.048 16.384-4.096 22.528l-145.408 145.408c-8.192 8.192-20.48 8.192-28.672 0-8.192-8.192-8.192-20.48 0-28.672l110.592-112.64z m-741.376 0l110.592 110.592c8.192 8.192 8.192 20.48 0 28.672-8.192 8.192-20.48 8.192-28.672 0l-145.408-145.408c-6.144-6.144-8.192-14.336-4.096-22.528 0-4.096 2.048-6.144 6.144-10.24l145.408-145.408c8.192-8.192 20.48-8.192 28.672 0 8.192 8.192 8.192 20.48 0 28.672l-112.64 112.64h272.384c12.288 0 20.48 8.192 20.48 20.48s-8.192 20.48-20.48 20.48h-272.384z m356.352 335.872v-272.384c0-12.288 8.192-20.48 20.48-20.48s20.48 8.192 20.48 20.48v272.384l112.64-112.64c8.192-8.192 20.48-8.192 28.672 0 8.192 8.192 8.192 20.48 0 28.672l-145.408 145.408c-2.048 2.048-6.144 4.096-10.24 6.144-8.192 2.048-16.384 2.048-22.528-4.096l-145.408-145.408c-8.192-8.192-8.192-20.48 0-28.672 8.192-8.192 20.48-8.192 28.672 0l112.64 110.592z m0-720.896l-110.592 110.592c-8.192 8.192-20.48 8.192-28.672 0-8.192-8.192-8.192-20.48 0-28.672l145.408-145.408c6.144-6.144 14.336-8.192 22.528-4.096 4.096 0 6.144 2.048 10.24 6.144l145.408 145.408c8.192 8.192 8.192 20.48 0 28.672-8.192 8.192-20.48 8.192-28.672 0l-112.64-112.64v272.384c0 12.288-8.192 20.48-20.48 20.48s-20.48-8.192-20.48-20.48v-272.384z" p-id="6815"></path></svg>