<?xml version="1.0" standalone="no"?><!DOCTYPE svg PUBLIC "-//W3C//DTD SVG 1.1//EN" "http://www.w3.org/Graphics/SVG/1.1/DTD/svg11.dtd"><svg t="1530269903040" class="icon" style="" viewBox="0 0 1024 1024" version="1.1" xmlns="http://www.w3.org/2000/svg" p-id="1962" xmlns:xlink="http://www.w3.org/1999/xlink" width="200" height="200"><defs><style type="text/css"></style></defs><path d="M950.349 925.799l-166.19-166.187a416.683 416.683 0 0 1-26.635 26.635l166.188 166.189c7.355 7.353 19.279 7.353 26.637 0 7.353-7.357 7.353-19.282 0-26.637zM478.156 103.561c-208.036 0-376.682 168.646-376.682 376.684 0 208.034 168.646 376.68 376.682 376.68s376.682-168.646 376.682-376.68c0-208.038-168.646-376.684-376.682-376.684z m0 715.697c-187.232 0-339.014-151.784-339.014-339.014 0-187.233 151.782-339.014 339.014-339.014S817.17 293.011 817.17 480.244c0 187.23-151.782 339.014-339.014 339.014zM647.663 461.41H496.99V310.736c0-10.4-8.432-18.832-18.834-18.832s-18.832 8.432-18.832 18.832V461.41H308.649c-10.4 0-18.834 8.43-18.834 18.834 0 10.4 8.434 18.832 18.834 18.832h150.675v150.673c0 10.404 8.43 18.836 18.832 18.836 10.402 0 18.834-8.432 18.834-18.836V499.077h150.673c10.404 0 18.836-8.432 18.836-18.832 0-10.405-8.432-18.835-18.836-18.835z" p-id="1963"></path></svg>