<?xml version="1.0" encoding="utf-8"?>
<svg id="图层_2" data-name="图层 2" xmlns="http://www.w3.org/2000/svg" viewBox="0 0 200 200"><defs><style>.cls-1{fill:#333;}</style></defs><title>文字</title><path class="cls-1" d="M40.38,73.69c.66-4.41,1.32-11.26,2-20.76s1.11-16.79,1.11-21.87c0-1.55,2.65-1.55,2.65,0,0,3.31,4,4.86,12.15,4.86q18.88.66,44.4.66c8.83,0,18.11-.22,27.83-.44l14.8-.22c11.27,0,15.69-1.1,17.23-5.52.22-1.11,2.43-1.11,2.43,0-.44,4.64-.88,11.48-1.32,20.76S163,68,163,73.69c0,.67-2.44.67-2.66,0-2.87-22.75-13.91-33.13-32.47-33.13-12.37,0-14.14,2.21-14.14,13.69V156.09c0,13.25,2.21,15.24,19.22,15.24.89,0,.89,2.65,0,2.65-5.08,0-9.28,0-12.15-.22l-18.11-.22-17.23.22c-3.09.22-7.29.22-12.81.22-.67,0-.67-2.65,0-2.65,16.79,0,19.66-2.43,19.66-15.24V53.81c0-10.82-2.43-13.25-13.92-13.25-17.89,0-29.16,11-35.34,33.36C42.8,74.58,40.38,74.36,40.38,73.69Z"/></svg>