<?xml version="1.0" standalone="no"?><!DOCTYPE svg PUBLIC "-//W3C//DTD SVG 1.1//EN" "http://www.w3.org/Graphics/SVG/1.1/DTD/svg11.dtd"><svg t="1530270269457" class="icon" style="" viewBox="0 0 1024 1024" version="1.1" xmlns="http://www.w3.org/2000/svg" p-id="958" xmlns:xlink="http://www.w3.org/1999/xlink" width="200" height="200"><defs><style type="text/css"></style></defs><path d="M479.604 103.525c-207.839 0-376.327 168.488-376.327 376.331 0 207.839 168.488 376.327 376.327 376.327 207.841 0 376.331-168.488 376.331-376.327 0-207.842-168.49-376.331-376.331-376.331z m0 715.028c-187.056 0-338.696-151.642-338.696-338.696 0-187.058 151.64-338.696 338.696-338.696 187.058 0 338.696 151.638 338.696 338.696 0 187.054-151.638 338.696-338.696 338.696z m471.749 106.441L785.32 758.961a416.71 416.71 0 0 1-26.611 26.611L924.74 951.606c7.35 7.346 19.264 7.346 26.612 0 7.349-7.35 7.349-19.264 0.001-26.612zM648.954 461.04H310.257c-10.392 0-18.818 8.422-18.818 18.816 0 10.39 8.426 18.815 18.818 18.815h338.696c10.391 0 18.815-8.424 18.815-18.815 0-10.394-8.424-18.816-18.814-18.816z" p-id="959" fill="#333333"></path></svg>