<?xml version="1.0" standalone="no"?><!DOCTYPE svg PUBLIC "-//W3C//DTD SVG 1.1//EN" "http://www.w3.org/Graphics/SVG/1.1/DTD/svg11.dtd"><svg t="1530262804972" class="icon" style="" viewBox="0 0 1024 1024" version="1.1" xmlns="http://www.w3.org/2000/svg" p-id="4493" xmlns:xlink="http://www.w3.org/1999/xlink" width="200" height="200"><defs><style type="text/css"></style></defs><path d="M614.4 102.4h-153.6c-30.72 0-51.2 20.48-51.2 51.2v568.32l102.4 181.76c15.36 23.04 35.84 23.04 51.2 0l102.4-181.76V153.6c0-30.72-20.48-51.2-51.2-51.2z m-76.8 750.08L460.8 716.8h153.6l-76.8 135.68z m76.8-186.88h-153.6V332.8h153.6v332.8z m0-384h-153.6V179.2c0-25.6 0-25.6 25.6-25.6h102.4c25.6 0 25.6 0 25.6 25.6v102.4z" p-id="4494" fill="#333333"></path></svg>